# xmcd
#
# Track frame offsets:
# 150
# 15651
# 28933
# 43934
# 62241
# 79158
# 92656
# 107464
# 122764
# 137926
# 148110
# 164251
# 176848
# 193803
#
# Disc length: 2793 seconds
#
#
# Revision: 1
# Processed by: cddbd v1.4PL0 Copyright (c) Steve Scherf et al.
# Submitted via: FreeRIP 2.53 
#
DISCID=cb0ae70e
DTITLE=Ataíde and Alexandre - Amor Carrapicho
DYEAR=1900
DGENRE=sertaneja
TTITLE0=Deus me livre
TTITLE1=Moda mulher e bebida
TTITLE2=eu quero esse amor
TTITLE3=Fica em minha vida
TTITLE4=Acusações
TTITLE5=Garota de rodeio
TTITLE6=To voltando pra ela
TTITLE7=Larga dele
TTITLE8=Só penso em você
TTITLE9=Amor carrapicho
TTITLE10=Quando não te vejo
TTITLE11=Vida de caboclo
TTITLE12=Fragmentos de amor
TTITLE13=Cowboy solitário
EXTD=
EXTT0=
EXTT1=
EXTT2=
EXTT3=
EXTT4=
EXTT5=
EXTT6=
EXTT7=
EXTT8=
EXTT9=
EXTT10=
EXTT11=
EXTT12=
EXTT13=
PLAYORDER=
